<?xml version="1.0" standalone="no"?>
<!DOCTYPE svg PUBLIC "-//W3C//DTD SVG 20010904//EN"
 "http://www.w3.org/TR/2001/REC-SVG-20010904/DTD/svg10.dtd">
<svg version="1.0" xmlns="http://www.w3.org/2000/svg"
 width="512.000000pt" height="512.000000pt" viewBox="0 0 512.000000 512.000000"
 preserveAspectRatio="xMidYMid meet">

<g transform="translate(0.000000,512.000000) scale(0.100000,-0.100000)"
fill="#000000" stroke="none">
<path d="M2336 5110 c-46 -14 -93 -52 -122 -98 -15 -23 -37 -44 -48 -47 -203
-40 -316 -94 -463 -222 -35 -30 -63 -60 -63 -66 0 -12 93 -97 106 -97 3 0 33
24 65 54 32 30 85 70 118 90 63 39 189 86 228 86 l23 0 0 -240 0 -240 75 0 75
0 0 299 0 300 26 20 c25 19 40 21 204 21 164 0 179 -2 204 -21 l26 -20 0 -300
0 -299 75 0 75 0 0 240 0 240 25 0 c43 0 183 -57 254 -104 88 -59 207 -184
261 -274 98 -165 140 -330 140 -550 l0 -142 -262 2 -263 3 -5 76 c-7 90 -35
142 -102 186 l-42 28 -386 0 -386 0 -42 -28 c-67 -44 -95 -96 -102 -186 l-5
-76 -262 -3 -263 -2 0 139 c0 209 38 372 124 525 l34 61 -58 39 c-33 21 -64
35 -70 31 -17 -11 -95 -174 -124 -260 -40 -120 -56 -231 -56 -395 0 -143 -1
-147 -23 -157 -42 -19 -90 -67 -108 -108 -27 -58 -27 -282 0 -340 35 -77 109
-122 217 -132 56 -5 64 -8 64 -27 0 -46 39 -206 69 -283 40 -102 127 -241 209
-332 l62 -70 0 -220 0 -221 -315 0 -315 0 0 226 0 225 -262 -3 c-243 -3 -267
-5 -309 -24 -66 -31 -114 -78 -146 -142 l-28 -57 -3 -261 -3 -261 -72 -6
c-134 -11 -256 -98 -315 -225 l-27 -57 0 -320 0 -320 32 -67 c60 -128 173
-207 308 -216 l73 -5 4 -126 c3 -101 8 -135 24 -172 31 -66 78 -114 142 -146
l57 -28 1463 -3 1462 -2 0 75 0 75 -1440 0 c-1424 0 -1441 0 -1480 20 -62 32
-80 77 -80 205 l0 105 48 0 c58 0 117 27 159 71 61 65 63 78 63 532 0 294 -3
421 -12 451 -25 85 -126 156 -222 156 l-36 0 0 93 0 94 55 -19 c53 -18 125
-18 1918 -16 1762 3 1864 4 1895 21 l32 18 0 -101 0 -100 -47 0 c-81 -1 -160
-50 -201 -125 -15 -26 -17 -82 -20 -462 -3 -426 -2 -433 19 -483 37 -85 120
-140 213 -140 l36 0 0 -101 c0 -86 -3 -107 -22 -141 -39 -68 -71 -78 -263 -78
l-165 0 0 -76 0 -76 188 4 c181 3 189 4 244 31 64 32 111 80 142 146 16 36 21
72 24 167 l4 121 71 6 c138 12 267 107 319 235 22 55 23 66 23 372 l0 315 -32
67 c-61 129 -172 207 -308 216 l-74 5 -3 266 -3 266 -29 58 c-19 39 -44 71
-78 97 -79 63 -117 70 -395 70 l-243 0 0 -225 0 -225 -315 0 -315 0 0 221 0
220 63 70 c81 91 168 230 208 332 30 77 69 237 69 283 0 19 8 22 64 27 108 10
182 55 217 132 25 54 27 276 3 333 -18 45 -67 97 -105 113 l-29 11 0 148 c0
161 -15 265 -57 395 -56 174 -183 374 -305 476 -143 121 -264 178 -454 215
-11 2 -33 23 -48 46 -30 48 -76 84 -127 98 -41 12 -403 12 -443 0z m584 -1240
c15 -15 20 -33 20 -75 l0 -55 -380 0 -380 0 0 55 c0 42 5 60 20 75 19 19 33
20 360 20 327 0 341 -1 360 -20z m830 -300 c17 -17 20 -33 20 -125 0 -118 -10
-139 -72 -149 -18 -3 -281 -21 -584 -41 -608 -39 -501 -40 -1164 5 -157 10
-337 22 -400 25 -130 7 -176 18 -190 45 -6 10 -10 64 -10 119 0 159 -159 141
1210 141 1157 0 1170 0 1190 -20z m-1580 -476 c233 -15 428 -23 475 -20 44 3
220 15 390 26 171 11 338 22 373 26 l63 6 -6 -49 c-18 -119 -80 -272 -158
-387 -111 -164 -313 -306 -517 -363 -93 -25 -367 -25 -460 0 -353 99 -619 396
-675 755 l-7 44 63 -6 c35 -4 242 -18 459 -32z m28 -874 c113 -41 227 -60 362
-60 187 0 355 41 506 125 l64 35 0 -165 0 -165 -570 0 -570 0 0 165 0 166 64
-36 c35 -20 100 -49 144 -65z m-1138 -80 l0 -150 -168 0 c-192 0 -221 8 -259
76 -29 49 -29 96 -1 145 38 68 76 79 266 79 l162 0 0 -150z m3365 130 c48 -23
85 -81 85 -131 0 -47 -38 -108 -80 -130 -30 -16 -58 -19 -202 -19 l-168 0 0
150 0 150 162 0 c141 0 167 -3 203 -20z m-3720 -755 c22 -21 25 -33 25 -100
l0 -75 -75 0 -75 0 0 -75 0 -75 75 0 75 0 0 -110 0 -110 -75 0 -75 0 0 -75 0
-75 75 0 75 0 0 -69 c0 -54 -4 -74 -21 -95 l-20 -26 -162 0 c-135 0 -169 3
-202 19 -51 23 -111 89 -124 138 -16 55 -14 544 1 597 15 50 89 127 138 143
19 6 104 11 188 12 150 1 153 0 177 -24z m4090 -4 c45 -21 89 -61 113 -106 15
-25 17 -72 20 -312 3 -272 2 -283 -19 -333 -25 -59 -82 -112 -138 -128 -21 -7
-103 -12 -185 -12 -143 0 -148 1 -171 25 -22 21 -25 33 -25 100 l0 75 75 0 75
0 0 75 0 75 -75 0 -75 0 0 110 0 110 75 0 75 0 0 75 0 75 -75 0 -75 0 0 69 c0
54 4 74 21 95 l20 26 162 0 c136 0 169 -3 202 -19z"/>
<path d="M3610 1615 l0 -75 75 0 75 0 0 75 0 75 -75 0 -75 0 0 -75z"/>
<path d="M3910 1615 l0 -75 75 0 75 0 0 75 0 75 -75 0 -75 0 0 -75z"/>
<path d="M3760 75 l0 -75 75 0 75 0 0 75 0 75 -75 0 -75 0 0 -75z"/>
</g>
</svg>
