<?xml version="1.0" standalone="no"?>
<!DOCTYPE svg PUBLIC "-//W3C//DTD SVG 20010904//EN"
 "http://www.w3.org/TR/2001/REC-SVG-20010904/DTD/svg10.dtd">
<svg version="1.0" xmlns="http://www.w3.org/2000/svg"
 width="512.000000pt" height="512.000000pt" viewBox="0 0 512.000000 512.000000"
 preserveAspectRatio="xMidYMid meet">

<g transform="translate(0.000000,512.000000) scale(0.100000,-0.100000)"
fill="#000000" stroke="none">
<path d="M735 4786 c-16 -8 -114 -99 -217 -202 -269 -273 -269 -256 10 -536
167 -167 203 -198 234 -203 61 -11 108 3 149 44 66 66 65 153 -3 227 l-41 44
974 0 c602 0 1008 -4 1064 -10 830 -95 1470 -735 1565 -1565 37 -330 -29 -678
-186 -985 -377 -732 -1200 -1105 -1994 -905 -621 156 -1122 657 -1275 1275
-32 130 -44 213 -54 363 -8 137 -16 157 -75 201 -39 29 -133 29 -172 0 -73
-54 -84 -109 -65 -318 37 -387 179 -758 409 -1065 71 -95 243 -273 342 -356
361 -300 847 -475 1320 -475 476 0 969 179 1325 480 235 199 409 420 540 685
345 700 267 1538 -203 2164 -75 99 -235 266 -343 356 -307 256 -709 423 -1118
465 -64 6 -475 10 -1078 10 l-976 0 41 44 c63 68 69 153 15 217 -47 55 -124
74 -188 45z"/>
<path d="M2335 3826 c-37 -17 -70 -52 -84 -89 -6 -16 -11 -95 -11 -177 l0
-150 -52 -26 c-29 -15 -65 -35 -80 -46 l-27 -18 -132 74 c-72 41 -144 78 -159
81 -38 8 -102 -10 -131 -37 -14 -13 -103 -157 -198 -322 -195 -334 -203 -355
-159 -431 19 -33 46 -53 155 -115 l132 -75 0 -95 0 -95 -132 -75 c-109 -62
-136 -82 -155 -115 -44 -76 -36 -96 159 -431 95 -164 184 -309 198 -322 29
-27 93 -45 131 -37 15 3 87 40 159 81 l132 74 27 -18 c15 -11 50 -31 79 -46
l52 -26 3 -164 c3 -180 7 -192 72 -240 27 -20 39 -21 406 -21 367 0 379 1 406
21 65 48 69 60 72 240 l3 164 52 26 c29 15 64 35 79 46 l27 18 132 -74 c72
-41 144 -78 159 -81 38 -8 102 10 131 37 14 13 103 157 198 322 195 334 203
355 159 431 -19 33 -46 53 -155 115 l-132 75 0 95 0 95 132 75 c109 62 136 82
155 115 44 76 36 97 -159 431 -95 165 -184 309 -198 322 -29 27 -93 45 -131
37 -15 -3 -87 -40 -159 -81 l-132 -74 -27 18 c-15 11 -50 31 -79 46 l-52 26
-3 164 c-3 180 -7 192 -72 240 -26 20 -41 21 -394 23 -291 2 -373 0 -397 -11z
m520 -801 c287 -60 505 -329 505 -625 0 -297 -218 -565 -510 -626 -277 -58
-575 85 -699 337 -126 255 -80 541 118 740 156 155 370 219 586 174z"/>
<path d="M2601 2864 c-253 -68 -410 -331 -346 -579 67 -256 329 -415 580 -350
256 67 415 329 350 578 -67 259 -333 419 -584 351z"/>
</g>
</svg>
